<?xml version="1.0" encoding="utf-8"?>
<!-- Generator: Adobe Illustrator 25.4.1, SVG Export Plug-In . SVG Version: 6.00 Build 0)  -->
<svg version="1.1" id="Layer_1" xmlns="http://www.w3.org/2000/svg" xmlns:xlink="http://www.w3.org/1999/xlink" x="0px" y="0px"
	 viewBox="0 0 24 24" style="enable-background:new 0 0 24 24;" xml:space="preserve">
<style type="text/css">
	.st0{fill:none;}
	.st1{fill:url(#SVGID_1_);}
</style>
<path class="st0" d="M0,0h24v24H0V0z"/>
<linearGradient id="SVGID_1_" gradientUnits="userSpaceOnUse" x1="2" y1="830.0001" x2="22" y2="830.0001" gradientTransform="matrix(1 0 0 1 0 -818.0001)">
	<stop  offset="0" style="stop-color:#7EBCE3"/>
	<stop  offset="0.1354" style="stop-color:#AEBEE1"/>
	<stop  offset="0.2699" style="stop-color:#CDC4DC"/>
	<stop  offset="0.4625" style="stop-color:#F6CBD5"/>
	<stop  offset="0.6402" style="stop-color:#F5C0D7"/>
	<stop  offset="0.9503" style="stop-color:#F1A3DE"/>
	<stop  offset="1" style="stop-color:#F09EDF"/>
</linearGradient>
<path class="st1" d="M12,2C6.5,2,2,6.5,2,12s4.5,10,10,10s10-4.5,10-10S17.5,2,12,2z M16.5,16H8c-1.7,0-3-1.3-3-3s1.3-3,3-3h0.1
	c0.4-1.7,2-3,3.9-3c2.2,0,4,1.8,4,4h0.5c1.4,0,2.5,1.1,2.5,2.5S17.9,16,16.5,16z"/>
</svg>
